PathFileType	4	(X/Y/Z)	s05c0102.trc
DataRate	CameraRate	NumFrames	NumMarkers	Units	OrigDataRate	OrigDataStartFrame	OrigNumFrames
200	200	4	50	mm	200	500	2000
Frame#	Time	racr			lacr			c7			jug			rlel			rdr			llel			ldr			s2			lic			ric			lasi			rasi			rpsi			lpsi			rgt			lgt			rth1			rth2			rth3			rth4			rlfc			rmfc			rsh1			rsh2			rsh3			rsh4			rlmal			rmmal			rcal			rtoe			rmt5			lth1			lth2			lth4			lth3			llfc			lmfc			lsh1			lsh2			lsh3			lsh4			llmal			lmmal			lcal			ltoe			lmt5			SBIKE			LBIKE			RBIKE			
		X1	Y1	Z1	X2	Y2	Z2	X3	Y3	Z3	X4	Y4	Z4	X5	Y5	Z5	X6	Y6	Z6	X7	Y7	Z7	X8	Y8	Z8	X9	Y9	Z9	X10	Y10	Z10	X11	Y11	Z11	X12	Y12	Z12	X13	Y13	Z13	X14	Y14	Z14	X15	Y15	Z15	X16	Y16	Z16	X17	Y17	Z17	X18	Y18	Z18	X19	Y19	Z19	X20	Y20	Z20	X21	Y21	Z21	X22	Y22	Z22	X23	Y23	Z23	X24	Y24	Z24	X25	Y25	Z25	X26	Y26	Z26	X27	Y27	Z27	X28	Y28	Z28	X29	Y29	Z29	X30	Y30	Z30	X31	Y31	Z31	X32	Y32	Z32	X33	Y33	Z33	X34	Y34	Z34	X35	Y35	Z35	X36	Y36	Z36	X37	Y37	Z37	X38	Y38	Z38	X39	Y39	Z39	X40	Y40	Z40	X41	Y41	Z41	X42	Y42	Z42	X43	Y43	Z43	X44	Y44	Z44	X45	Y45	Z45	X46	Y46	Z46	X47	Y47	Z47	X48	Y48	Z48	X49	Y49	Z49	X50	Y50	Z50	
500	2.5000	411.356390	1355.951291	-154.882443	417.851828	1373.347558	-425.680140	386.848045	1439.464411	-293.633060	369.844009	1283.151199	-294.312607	527.984090	1124.296206	-78.188240	698.879999	915.100067	-112.468101	516.084189	1122.988322	-511.589904	754.050472	1028.278579	-479.877480	-144.993484	1166.215632	-274.689647	4.922543	1170.830199	-420.384527	16.909394	1193.023435	-142.477231	50.326144	1117.218390	-386.645775	48.301333	1128.119569	-167.719502	-106.219665	1213.926408	-235.423249	-105.953641	1212.982507	-322.294775	-38.679241	1068.772184	-100.220668	-75.325438	1067.231251	-445.719517	62.071021	1007.985407	-85.911727	149.940919	991.369004	-79.623422	215.372137	932.463933	-82.524801	165.605565	1023.102248	-91.517827	346.940156	854.493227	-108.398090	336.089886	850.985795	-219.357526	291.441967	757.529276	-86.812826	292.113738	669.165640	-98.978167	251.657159	593.746878	-105.323101	322.694665	665.092979	-122.850468	225.214496	462.481514	-119.193682	234.488259	496.156051	-196.191944	157.245664	424.654924	-165.692154	452.556362	425.036847	-159.685664	353.613298	393.922906	-94.684418	8.485813	952.156447	-470.034713	81.682425	906.973810	-473.712174	109.536160	929.818801	-462.789777	122.974566	826.438546	-476.756339	204.485774	701.482090	-448.944069	199.259212	693.533459	-339.673296	115.767725	610.607433	-467.345400	82.365634	530.747143	-452.616745	11.467088	477.542304	-448.333756	108.522392	514.853297	-429.365961	-57.814159	376.096121	-435.169793	-22.343011	398.257186	-360.299314	-128.310902	354.312214	-389.407936	147.362713	252.679232	-402.223873	35.320442	258.474535	-462.087941	-221.247642	910.439760	-274.948364	-53.517552	79.229598	-475.048198	-53.483804	79.160199	-77.370796	
501	2.5050	411.371134	1355.942853	-154.883731	417.835280	1373.358870	-425.683504	386.851715	1439.452160	-293.616382	369.861049	1283.148015	-294.303307	527.979169	1124.283372	-78.169291	698.871515	915.115096	-112.477050	516.077848	1122.985446	-511.615991	754.076031	1028.280720	-479.831300	-144.973439	1166.206469	-274.720815	4.941335	1170.824313	-420.396904	16.906188	1193.036130	-142.477271	50.335527	1117.219233	-386.656939	48.310570	1128.139453	-167.720650	-106.199902	1213.884780	-235.423480	-105.979321	1212.853335	-322.174585	-38.645433	1068.781487	-100.188001	-75.310394	1067.204085	-445.735163	62.083563	1008.009013	-85.902739	149.981582	991.409223	-79.633838	215.428927	932.555955	-82.521300	165.628186	1023.137941	-91.523960	346.985663	854.552422	-108.398837	336.129533	851.041984	-219.349392	291.417683	757.646781	-86.837238	292.107483	669.227786	-98.967030	251.618541	593.847593	-105.327638	322.680002	665.177706	-122.834422	225.172344	462.573988	-119.211050	234.439468	496.244899	-196.201171	157.199297	424.738034	-165.701439	452.500059	425.131047	-159.686314	353.555286	394.038231	-94.679410	8.481897	952.137981	-470.052757	81.694646	906.915237	-473.700216	109.541375	929.779277	-462.807910	122.965193	826.383809	-476.775665	204.440912	701.418112	-448.945239	199.212552	693.447377	-339.700599	115.725336	610.524587	-467.357323	82.333670	530.670642	-452.608508	11.460865	477.426974	-448.326504	108.504572	514.761867	-429.376032	-57.804656	375.963381	-435.189215	-22.334568	398.152137	-360.302471	-128.329467	354.113057	-389.329058	147.397772	252.601183	-402.217528	35.348116	258.389854	-462.074830	-221.238455	910.453707	-274.961024	-53.509393	79.222146	-475.064579	-53.491224	79.186534	-77.377353	
502	2.5100	411.358192	1355.942156	-154.880799	417.828911	1373.338840	-425.694548	386.862189	1439.428984	-293.655578	369.847068	1283.131639	-294.315000	527.962134	1124.291985	-78.163672	698.866395	915.089450	-112.488151	516.070393	1122.980241	-511.642789	754.183764	1028.287241	-479.908373	-144.967491	1166.182253	-274.744977	4.977548	1170.817270	-420.404012	16.910299	1193.014464	-142.512667	50.373962	1117.212324	-386.663056	48.340841	1128.127467	-167.753019	-106.180403	1213.867029	-235.437851	-105.948623	1212.813647	-322.196114	-38.622551	1068.788351	-100.246635	-75.281054	1067.185101	-445.740429	62.083675	1008.136798	-85.879176	150.002612	991.462576	-79.648438	215.456845	932.603260	-82.536344	165.692881	1023.079669	-91.598820	347.020097	854.633825	-108.405436	336.187137	851.094746	-219.321626	291.469792	757.705834	-86.834625	292.101763	669.295699	-98.978770	251.599847	593.955041	-105.340682	322.697646	665.246925	-122.854294	225.138609	462.679262	-119.217094	234.433777	496.346925	-196.213344	157.180245	424.832546	-165.744793	452.468540	425.203008	-159.683746	353.530208	394.116128	-94.685716	8.508297	952.116639	-470.056101	81.689214	906.876024	-473.728022	109.551626	929.718381	-462.796341	122.942199	826.336488	-476.792539	204.391767	701.333406	-448.934166	199.171401	693.390901	-339.676722	115.689504	610.421458	-467.350549	82.315528	530.563344	-452.598235	11.443656	477.342177	-448.315360	108.462176	514.651077	-429.351599	-57.803520	375.836762	-435.174104	-22.384025	398.061655	-360.297184	-128.318656	353.997267	-389.329571	147.435623	252.516485	-402.213389	35.363081	258.281176	-462.082871	-221.236271	910.429569	-274.953301	-53.519806	79.204075	-475.063688	-53.475081	79.164803	-77.388997	
503	2.5150	411.373651	1355.920802	-154.900461	417.822868	1373.340825	-425.712213	386.873142	1439.412400	-293.654111	369.843883	1283.122844	-294.325696	527.972249	1124.297553	-78.167593	698.857734	915.079681	-112.493563	516.074247	1122.979025	-511.642397	754.084660	1028.312797	-479.833574	-144.947392	1166.161999	-274.754309	5.008839	1170.796710	-420.398156	16.904707	1193.026263	-142.516180	50.401467	1117.212369	-386.649067	48.336733	1128.147504	-167.751586	-106.169955	1213.853217	-235.459667	-105.929143	1212.791729	-322.201780	-38.598303	1068.770830	-100.241944	-75.258385	1067.153905	-445.756276	62.169413	1008.048768	-85.926405	150.047600	991.492231	-79.664327	215.487602	932.652548	-82.533659	165.684984	1023.224484	-91.575195	347.072280	854.744111	-108.405783	336.211932	851.165147	-219.293986	291.462705	757.827687	-86.862835	292.124130	669.375797	-98.977075	251.588012	594.065313	-105.332045	322.687005	665.381477	-122.800901	225.137161	462.802521	-119.232464	234.421328	496.444480	-196.232008	157.139096	424.970309	-165.718776	452.452594	425.266214	-159.691012	353.498485	394.169497	-94.691278	8.519893	952.061302	-470.059371	81.702724	906.814567	-473.712362	109.567645	929.666970	-462.802985	122.944556	826.243008	-476.790366	204.362835	701.259254	-448.918420	199.100634	693.320578	-339.687719	115.644907	610.341739	-467.346102	82.293038	530.495578	-452.594574	11.423776	477.258124	-448.316044	108.438617	514.550328	-429.324472	-57.789965	375.716811	-435.193276	-22.384288	397.987906	-360.293637	-128.312402	353.872220	-389.318278	147.465527	252.449235	-402.204868	35.393351	258.227898	-462.105205	-221.243696	910.435499	-274.967748	-53.517800	79.201416	-475.053196	-53.490995	79.167140	-77.374172	
